# xmcd
#
# Track frame offsets: 
#        150
#        17447
#        37370
#        57582
#        78095
#        95367
#        118015
#        139315
#        153430
#        171822
#        189217
#        206850
#        227675
#        249430
#        267267
#        289097
#        307265
#        339197
#
# Disc length: 4795 seconds
#
# Revision: 2
# Processed by: cddbd v1.5.1PL2 Copyright (c) Steve Scherf et al.
# Submitted via: ExactAudioCopy v0.95b3
#
DISCID=fe12b912
DTITLE=Pet Shop Boys - Pop Art: Pop [Disc 1]
DYEAR=2003
DGENRE=Pop
TTITLE0=Go West
TTITLE1=Suburbia
TTITLE2=Se a Vida E (That's the Way Life Is)
TTITLE3=What Have I Done to Deserve This?
TTITLE4=Always on My Mind
TTITLE5=I Wouldn't Normally Do This Kind of Thing
TTITLE6=Home and Dry
TTITLE7=Heart
TTITLE8=Miracles
TTITLE9=Love Comes Quickly
TTITLE10=It's a Sin
TTITLE11=Domino Dancing
TTITLE12=Before
TTITLE13=New York City Boy
TTITLE14=It's Alright
TTITLE15=Where the Streets Have No Name (I Can't Take My Eyes Off You)
TTITLE16=A Red Letter Day
TTITLE17=Data
EXTD=
EXTT0=
EXTT1=
EXTT2=
EXTT3=
EXTT4=
EXTT5=
EXTT6=
EXTT7=
EXTT8=
EXTT9=
EXTT10=
EXTT11=
EXTT12=
EXTT13=
EXTT14=
EXTT15=
EXTT16=
EXTT17=
PLAYORDER=
